<svg width="24" height="24" viewBox="0 0 24 24" fill="none" xmlns="http://www.w3.org/2000/svg">
<path d="M11.0732 13.6456C11.1189 13.678 11.1695 13.7043 11.2085 13.7428C12.2086 14.747 13.2043 15.7556 14.2088 16.7553C14.6073 17.1521 14.7498 17.6165 14.6162 18.1546C14.5739 18.3245 14.4866 18.5027 14.3691 18.6301C14.0307 18.9995 13.6801 19.3605 13.3089 19.6963C12.8531 20.1082 12.0678 20.0942 11.6003 19.6963C11.5368 19.6421 11.4739 19.5863 11.4149 19.5276C9.09969 17.2035 6.78499 14.8789 4.46862 12.5554C4.21483 12.3005 4.02783 12.0167 4.00389 11.6467C3.97495 11.1958 4.1063 10.8063 4.42966 10.4822C6.76551 8.13912 9.09857 5.79326 11.435 3.45131C11.9331 2.95173 12.567 2.86456 13.1647 3.20152C13.2644 3.25796 13.3584 3.33116 13.4408 3.41107C13.723 3.68712 14.0007 3.9682 14.2767 4.25096C14.7988 4.78462 14.8071 5.67312 14.2055 6.26433C13.1881 7.26459 12.1885 8.28218 11.1806 9.29194C11.1517 9.321 11.1133 9.34111 11.0793 9.36514C11.0855 9.37967 11.0921 9.3942 11.0983 9.40873C11.1506 9.40873 11.2029 9.40873 11.2552 9.40873C13.7035 9.40873 16.1523 9.4227 18.6006 9.40091C19.4426 9.39364 19.9447 9.97983 19.9786 10.6655C20.0081 11.2589 20.0103 11.858 19.9647 12.4503C19.9213 13.0186 19.4493 13.6054 18.6707 13.6014C16.1946 13.5897 13.718 13.597 11.2419 13.597C11.1968 13.597 11.1511 13.597 11.1061 13.597C11.0955 13.6137 11.0844 13.6294 11.0732 13.6456Z" fill="#003946"/>
</svg>
